# Stylized surfer character
mtllib surfer_character.mtl
o torso
usemtl skin
v -0.260000 0.960000 -0.150000
v 0.260000 0.960000 -0.150000
v 0.260000 1.680000 -0.150000
v -0.260000 1.680000 -0.150000
v -0.260000 0.960000 0.150000
v 0.260000 0.960000 0.150000
v 0.260000 1.680000 0.150000
v -0.260000 1.680000 0.150000
f 1 2 3 4
f 5 8 7 6
f 1 5 6 2
f 2 6 7 3
f 3 7 8 4
f 5 1 4 8
o neck
usemtl skin
v 0.180000 1.780000 0.000000
v 0.166298 1.780000 0.068883
v 0.127279 1.780000 0.127279
v 0.068883 1.780000 0.166298
v 0.000000 1.780000 0.180000
v -0.068883 1.780000 0.166298
v -0.127279 1.780000 0.127279
v -0.166298 1.780000 0.068883
v -0.180000 1.780000 0.000000
v -0.166298 1.780000 -0.068883
v -0.127279 1.780000 -0.127279
v -0.068883 1.780000 -0.166298
v -0.000000 1.780000 -0.180000
v 0.068883 1.780000 -0.166298
v 0.127279 1.780000 -0.127279
v 0.166298 1.780000 -0.068883
v 0.180000 1.980000 0.000000
v 0.166298 1.980000 0.068883
v 0.127279 1.980000 0.127279
v 0.068883 1.980000 0.166298
v 0.000000 1.980000 0.180000
v -0.068883 1.980000 0.166298
v -0.127279 1.980000 0.127279
v -0.166298 1.980000 0.068883
v -0.180000 1.980000 0.000000
v -0.166298 1.980000 -0.068883
v -0.127279 1.980000 -0.127279
v -0.068883 1.980000 -0.166298
v -0.000000 1.980000 -0.180000
v 0.068883 1.980000 -0.166298
v 0.127279 1.980000 -0.127279
v 0.166298 1.980000 -0.068883
v 0.000000 1.780000 0.000000
v 0.000000 1.980000 0.000000
f 9 10 26 25
f 10 11 27 26
f 11 12 28 27
f 12 13 29 28
f 13 14 30 29
f 14 15 31 30
f 15 16 32 31
f 16 17 33 32
f 17 18 34 33
f 18 19 35 34
f 19 20 36 35
f 20 21 37 36
f 21 22 38 37
f 22 23 39 38
f 23 24 40 39
f 24 9 25 40
f 41 10 9
f 42 25 26
f 41 11 10
f 42 26 27
f 41 12 11
f 42 27 28
f 41 13 12
f 42 28 29
f 41 14 13
f 42 29 30
f 41 15 14
f 42 30 31
f 41 16 15
f 42 31 32
f 41 17 16
f 42 32 33
f 41 18 17
f 42 33 34
f 41 19 18
f 42 34 35
f 41 20 19
f 42 35 36
f 41 21 20
f 42 36 37
f 41 22 21
f 42 37 38
f 41 23 22
f 42 38 39
f 41 24 23
f 42 39 40
f 41 9 24
f 42 40 25
o head
usemtl skin
v 0.000000 2.420000 0.000000
v 0.000000 2.420000 0.000000
v 0.000000 2.420000 0.000000
v 0.000000 2.420000 0.000000
v 0.000000 2.420000 0.000000
v 0.000000 2.420000 0.000000
v 0.000000 2.420000 0.000000
v 0.000000 2.420000 0.000000
v 0.000000 2.420000 0.000000
v 0.000000 2.420000 0.000000
v 0.000000 2.420000 0.000000
v 0.000000 2.420000 0.000000
v 0.000000 2.420000 0.000000
v 0.000000 2.420000 0.000000
v 0.000000 2.420000 0.000000
v 0.000000 2.420000 0.000000
v 0.074164 2.408254 0.000000
v 0.068519 2.408254 0.028381
v 0.052442 2.408254 0.052442
v 0.028381 2.408254 0.068519
v 0.000000 2.408254 0.074164
v -0.028381 2.408254 0.068519
v -0.052442 2.408254 0.052442
v -0.068519 2.408254 0.028381
v -0.074164 2.408254 0.000000
v -0.068519 2.408254 -0.028381
v -0.052442 2.408254 -0.052442
v -0.028381 2.408254 -0.068519
v -0.000000 2.408254 -0.074164
v 0.028381 2.408254 -0.068519
v 0.052442 2.408254 -0.052442
v 0.068519 2.408254 -0.028381
v 0.141068 2.374164 0.000000
v 0.130330 2.374164 0.053985
v 0.099750 2.374164 0.099750
v 0.053985 2.374164 0.130330
v 0.000000 2.374164 0.141068
v -0.053985 2.374164 0.130330
v -0.099750 2.374164 0.099750
v -0.130330 2.374164 0.053985
v -0.141068 2.374164 0.000000
v -0.130330 2.374164 -0.053985
v -0.099750 2.374164 -0.099750
v -0.053985 2.374164 -0.130330
v -0.000000 2.374164 -0.141068
v 0.053985 2.374164 -0.130330
v 0.099750 2.374164 -0.099750
v 0.130330 2.374164 -0.053985
v 0.194164 2.321068 0.000000
v 0.179384 2.321068 0.074303
v 0.137295 2.321068 0.137295
v 0.074303 2.321068 0.179384
v 0.000000 2.321068 0.194164
v -0.074303 2.321068 0.179384
v -0.137295 2.321068 0.137295
v -0.179384 2.321068 0.074303
v -0.194164 2.321068 0.000000
v -0.179384 2.321068 -0.074303
v -0.137295 2.321068 -0.137295
v -0.074303 2.321068 -0.179384
v -0.000000 2.321068 -0.194164
v 0.074303 2.321068 -0.179384
v 0.137295 2.321068 -0.137295
v 0.179384 2.321068 -0.074303
v 0.228254 2.254164 0.000000
v 0.210879 2.254164 0.087349
v 0.161400 2.254164 0.161400
v 0.087349 2.254164 0.210879
v 0.000000 2.254164 0.228254
v -0.087349 2.254164 0.210879
v -0.161400 2.254164 0.161400
v -0.210879 2.254164 0.087349
v -0.228254 2.254164 0.000000
v -0.210879 2.254164 -0.087349
v -0.161400 2.254164 -0.161400
v -0.087349 2.254164 -0.210879
v -0.000000 2.254164 -0.228254
v 0.087349 2.254164 -0.210879
v 0.161400 2.254164 -0.161400
v 0.210879 2.254164 -0.087349
v 0.240000 2.180000 0.000000
v 0.221731 2.180000 0.091844
v 0.169706 2.180000 0.169706
v 0.091844 2.180000 0.221731
v 0.000000 2.180000 0.240000
v -0.091844 2.180000 0.221731
v -0.169706 2.180000 0.169706
v -0.221731 2.180000 0.091844
v -0.240000 2.180000 0.000000
v -0.221731 2.180000 -0.091844
v -0.169706 2.180000 -0.169706
v -0.091844 2.180000 -0.221731
v -0.000000 2.180000 -0.240000
v 0.091844 2.180000 -0.221731
v 0.169706 2.180000 -0.169706
v 0.221731 2.180000 -0.091844
v 0.228254 2.105836 0.000000
v 0.210879 2.105836 0.087349
v 0.161400 2.105836 0.161400
v 0.087349 2.105836 0.210879
v 0.000000 2.105836 0.228254
v -0.087349 2.105836 0.210879
v -0.161400 2.105836 0.161400
v -0.210879 2.105836 0.087349
v -0.228254 2.105836 0.000000
v -0.210879 2.105836 -0.087349
v -0.161400 2.105836 -0.161400
v -0.087349 2.105836 -0.210879
v -0.000000 2.105836 -0.228254
v 0.087349 2.105836 -0.210879
v 0.161400 2.105836 -0.161400
v 0.210879 2.105836 -0.087349
v 0.194164 2.038932 0.000000
v 0.179384 2.038932 0.074303
v 0.137295 2.038932 0.137295
v 0.074303 2.038932 0.179384
v 0.000000 2.038932 0.194164
v -0.074303 2.038932 0.179384
v -0.137295 2.038932 0.137295
v -0.179384 2.038932 0.074303
v -0.194164 2.038932 0.000000
v -0.179384 2.038932 -0.074303
v -0.137295 2.038932 -0.137295
v -0.074303 2.038932 -0.179384
v -0.000000 2.038932 -0.194164
v 0.074303 2.038932 -0.179384
v 0.137295 2.038932 -0.137295
v 0.179384 2.038932 -0.074303
v 0.141068 1.985836 0.000000
v 0.130330 1.985836 0.053985
v 0.099750 1.985836 0.099750
v 0.053985 1.985836 0.130330
v 0.000000 1.985836 0.141068
v -0.053985 1.985836 0.130330
v -0.099750 1.985836 0.099750
v -0.130330 1.985836 0.053985
v -0.141068 1.985836 0.000000
v -0.130330 1.985836 -0.053985
v -0.099750 1.985836 -0.099750
v -0.053985 1.985836 -0.130330
v -0.000000 1.985836 -0.141068
v 0.053985 1.985836 -0.130330
v 0.099750 1.985836 -0.099750
v 0.130330 1.985836 -0.053985
v 0.074164 1.951746 0.000000
v 0.068519 1.951746 0.028381
v 0.052442 1.951746 0.052442
v 0.028381 1.951746 0.068519
v 0.000000 1.951746 0.074164
v -0.028381 1.951746 0.068519
v -0.052442 1.951746 0.052442
v -0.068519 1.951746 0.028381
v -0.074164 1.951746 0.000000
v -0.068519 1.951746 -0.028381
v -0.052442 1.951746 -0.052442
v -0.028381 1.951746 -0.068519
v -0.000000 1.951746 -0.074164
v 0.028381 1.951746 -0.068519
v 0.052442 1.951746 -0.052442
v 0.068519 1.951746 -0.028381
v 0.000000 1.940000 0.000000
v 0.000000 1.940000 0.000000
v 0.000000 1.940000 0.000000
v 0.000000 1.940000 0.000000
v 0.000000 1.940000 0.000000
v -0.000000 1.940000 0.000000
v -0.000000 1.940000 0.000000
v -0.000000 1.940000 0.000000
v -0.000000 1.940000 0.000000
v -0.000000 1.940000 -0.000000
v -0.000000 1.940000 -0.000000
v -0.000000 1.940000 -0.000000
v -0.000000 1.940000 -0.000000
v 0.000000 1.940000 -0.000000
v 0.000000 1.940000 -0.000000
v 0.000000 1.940000 -0.000000
f 43 44 60 59
f 44 45 61 60
f 45 46 62 61
f 46 47 63 62
f 47 48 64 63
f 48 49 65 64
f 49 50 66 65
f 50 51 67 66
f 51 52 68 67
f 52 53 69 68
f 53 54 70 69
f 54 55 71 70
f 55 56 72 71
f 56 57 73 72
f 57 58 74 73
f 58 43 59 74
f 59 60 76 75
f 60 61 77 76
f 61 62 78 77
f 62 63 79 78
f 63 64 80 79
f 64 65 81 80
f 65 66 82 81
f 66 67 83 82
f 67 68 84 83
f 68 69 85 84
f 69 70 86 85
f 70 71 87 86
f 71 72 88 87
f 72 73 89 88
f 73 74 90 89
f 74 59 75 90
f 75 76 92 91
f 76 77 93 92
f 77 78 94 93
f 78 79 95 94
f 79 80 96 95
f 80 81 97 96
f 81 82 98 97
f 82 83 99 98
f 83 84 100 99
f 84 85 101 100
f 85 86 102 101
f 86 87 103 102
f 87 88 104 103
f 88 89 105 104
f 89 90 106 105
f 90 75 91 106
f 91 92 108 107
f 92 93 109 108
f 93 94 110 109
f 94 95 111 110
f 95 96 112 111
f 96 97 113 112
f 97 98 114 113
f 98 99 115 114
f 99 100 116 115
f 100 101 117 116
f 101 102 118 117
f 102 103 119 118
f 103 104 120 119
f 104 105 121 120
f 105 106 122 121
f 106 91 107 122
f 107 108 124 123
f 108 109 125 124
f 109 110 126 125
f 110 111 127 126
f 111 112 128 127
f 112 113 129 128
f 113 114 130 129
f 114 115 131 130
f 115 116 132 131
f 116 117 133 132
f 117 118 134 133
f 118 119 135 134
f 119 120 136 135
f 120 121 137 136
f 121 122 138 137
f 122 107 123 138
f 123 124 140 139
f 124 125 141 140
f 125 126 142 141
f 126 127 143 142
f 127 128 144 143
f 128 129 145 144
f 129 130 146 145
f 130 131 147 146
f 131 132 148 147
f 132 133 149 148
f 133 134 150 149
f 134 135 151 150
f 135 136 152 151
f 136 137 153 152
f 137 138 154 153
f 138 123 139 154
f 139 140 156 155
f 140 141 157 156
f 141 142 158 157
f 142 143 159 158
f 143 144 160 159
f 144 145 161 160
f 145 146 162 161
f 146 147 163 162
f 147 148 164 163
f 148 149 165 164
f 149 150 166 165
f 150 151 167 166
f 151 152 168 167
f 152 153 169 168
f 153 154 170 169
f 154 139 155 170
f 155 156 172 171
f 156 157 173 172
f 157 158 174 173
f 158 159 175 174
f 159 160 176 175
f 160 161 177 176
f 161 162 178 177
f 162 163 179 178
f 163 164 180 179
f 164 165 181 180
f 165 166 182 181
f 166 167 183 182
f 167 168 184 183
f 168 169 185 184
f 169 170 186 185
f 170 155 171 186
f 171 172 188 187
f 172 173 189 188
f 173 174 190 189
f 174 175 191 190
f 175 176 192 191
f 176 177 193 192
f 177 178 194 193
f 178 179 195 194
f 179 180 196 195
f 180 181 197 196
f 181 182 198 197
f 182 183 199 198
f 183 184 200 199
f 184 185 201 200
f 185 186 202 201
f 186 171 187 202
f 187 188 204 203
f 188 189 205 204
f 189 190 206 205
f 190 191 207 206
f 191 192 208 207
f 192 193 209 208
f 193 194 210 209
f 194 195 211 210
f 195 196 212 211
f 196 197 213 212
f 197 198 214 213
f 198 199 215 214
f 199 200 216 215
f 200 201 217 216
f 201 202 218 217
f 202 187 203 218
o beard
usemtl beard
v 0.120000 1.930000 0.160000
v 0.103923 1.930000 0.220000
v 0.060000 1.930000 0.263923
v 0.000000 1.930000 0.280000
v -0.060000 1.930000 0.263923
v -0.103923 1.930000 0.220000
v -0.120000 1.930000 0.160000
v -0.103923 1.930000 0.100000
v -0.060000 1.930000 0.056077
v -0.000000 1.930000 0.040000
v 0.060000 1.930000 0.056077
v 0.103923 1.930000 0.100000
v 0.120000 2.070000 0.160000
v 0.103923 2.070000 0.220000
v 0.060000 2.070000 0.263923
v 0.000000 2.070000 0.280000
v -0.060000 2.070000 0.263923
v -0.103923 2.070000 0.220000
v -0.120000 2.070000 0.160000
v -0.103923 2.070000 0.100000
v -0.060000 2.070000 0.056077
v -0.000000 2.070000 0.040000
v 0.060000 2.070000 0.056077
v 0.103923 2.070000 0.100000
v 0.000000 1.930000 0.160000
v 0.000000 2.070000 0.160000
f 219 220 232 231
f 220 221 233 232
f 221 222 234 233
f 222 223 235 234
f 223 224 236 235
f 224 225 237 236
f 225 226 238 237
f 226 227 239 238
f 227 228 240 239
f 228 229 241 240
f 229 230 242 241
f 230 219 231 242
f 243 220 219
f 244 231 232
f 243 221 220
f 244 232 233
f 243 222 221
f 244 233 234
f 243 223 222
f 244 234 235
f 243 224 223
f 244 235 236
f 243 225 224
f 244 236 237
f 243 226 225
f 244 237 238
f 243 227 226
f 244 238 239
f 243 228 227
f 244 239 240
f 243 229 228
f 244 240 241
f 243 230 229
f 244 241 242
f 243 219 230
f 244 242 231
o upper_arm_l
usemtl skin
v -0.270000 1.330000 0.000000
v -0.278913 1.330000 0.039050
v -0.303886 1.330000 0.070365
v -0.339973 1.330000 0.087744
v -0.380027 1.330000 0.087744
v -0.416114 1.330000 0.070365
v -0.441087 1.330000 0.039050
v -0.450000 1.330000 0.000000
v -0.441087 1.330000 -0.039050
v -0.416114 1.330000 -0.070365
v -0.380027 1.330000 -0.087744
v -0.339973 1.330000 -0.087744
v -0.303886 1.330000 -0.070365
v -0.278913 1.330000 -0.039050
v -0.270000 1.790000 0.000000
v -0.278913 1.790000 0.039050
v -0.303886 1.790000 0.070365
v -0.339973 1.790000 0.087744
v -0.380027 1.790000 0.087744
v -0.416114 1.790000 0.070365
v -0.441087 1.790000 0.039050
v -0.450000 1.790000 0.000000
v -0.441087 1.790000 -0.039050
v -0.416114 1.790000 -0.070365
v -0.380027 1.790000 -0.087744
v -0.339973 1.790000 -0.087744
v -0.303886 1.790000 -0.070365
v -0.278913 1.790000 -0.039050
v -0.360000 1.330000 0.000000
v -0.360000 1.790000 0.000000
f 245 246 260 259
f 246 247 261 260
f 247 248 262 261
f 248 249 263 262
f 249 250 264 263
f 250 251 265 264
f 251 252 266 265
f 252 253 267 266
f 253 254 268 267
f 254 255 269 268
f 255 256 270 269
f 256 257 271 270
f 257 258 272 271
f 258 245 259 272
f 273 246 245
f 274 259 260
f 273 247 246
f 274 260 261
f 273 248 247
f 274 261 262
f 273 249 248
f 274 262 263
f 273 250 249
f 274 263 264
f 273 251 250
f 274 264 265
f 273 252 251
f 274 265 266
f 273 253 252
f 274 266 267
f 273 254 253
f 274 267 268
f 273 255 254
f 274 268 269
f 273 256 255
f 274 269 270
f 273 257 256
f 274 270 271
f 273 258 257
f 274 271 272
f 273 245 258
f 274 272 259
o forearm_l
usemtl skin
v -0.285000 0.900000 0.000000
v -0.292427 0.900000 0.032541
v -0.313238 0.900000 0.058637
v -0.343311 0.900000 0.073120
v -0.376689 0.900000 0.073120
v -0.406762 0.900000 0.058637
v -0.427573 0.900000 0.032541
v -0.435000 0.900000 0.000000
v -0.427573 0.900000 -0.032541
v -0.406762 0.900000 -0.058637
v -0.376689 0.900000 -0.073120
v -0.343311 0.900000 -0.073120
v -0.313238 0.900000 -0.058637
v -0.292427 0.900000 -0.032541
v -0.285000 1.340000 0.000000
v -0.292427 1.340000 0.032541
v -0.313238 1.340000 0.058637
v -0.343311 1.340000 0.073120
v -0.376689 1.340000 0.073120
v -0.406762 1.340000 0.058637
v -0.427573 1.340000 0.032541
v -0.435000 1.340000 0.000000
v -0.427573 1.340000 -0.032541
v -0.406762 1.340000 -0.058637
v -0.376689 1.340000 -0.073120
v -0.343311 1.340000 -0.073120
v -0.313238 1.340000 -0.058637
v -0.292427 1.340000 -0.032541
v -0.360000 0.900000 0.000000
v -0.360000 1.340000 0.000000
f 275 276 290 289
f 276 277 291 290
f 277 278 292 291
f 278 279 293 292
f 279 280 294 293
f 280 281 295 294
f 281 282 296 295
f 282 283 297 296
f 283 284 298 297
f 284 285 299 298
f 285 286 300 299
f 286 287 301 300
f 287 288 302 301
f 288 275 289 302
f 303 276 275
f 304 289 290
f 303 277 276
f 304 290 291
f 303 278 277
f 304 291 292
f 303 279 278
f 304 292 293
f 303 280 279
f 304 293 294
f 303 281 280
f 304 294 295
f 303 282 281
f 304 295 296
f 303 283 282
f 304 296 297
f 303 284 283
f 304 297 298
f 303 285 284
f 304 298 299
f 303 286 285
f 304 299 300
f 303 287 286
f 304 300 301
f 303 288 287
f 304 301 302
f 303 275 288
f 304 302 289
o hand_l
usemtl skin
v -0.360000 0.940000 0.020000
v -0.360000 0.940000 0.020000
v -0.360000 0.940000 0.020000
v -0.360000 0.940000 0.020000
v -0.360000 0.940000 0.020000
v -0.360000 0.940000 0.020000
v -0.360000 0.940000 0.020000
v -0.360000 0.940000 0.020000
v -0.360000 0.940000 0.020000
v -0.360000 0.940000 0.020000
v -0.360000 0.940000 0.020000
v -0.360000 0.940000 0.020000
v -0.329385 0.933910 0.020000
v -0.333487 0.933910 0.035307
v -0.344693 0.933910 0.046513
v -0.360000 0.933910 0.050615
v -0.375307 0.933910 0.046513
v -0.386513 0.933910 0.035307
v -0.390615 0.933910 0.020000
v -0.386513 0.933910 0.004693
v -0.375307 0.933910 -0.006513
v -0.360000 0.933910 -0.010615
v -0.344693 0.933910 -0.006513
v -0.333487 0.933910 0.004693
v -0.303431 0.916569 0.020000
v -0.311010 0.916569 0.048284
v -0.331716 0.916569 0.068990
v -0.360000 0.916569 0.076569
v -0.388284 0.916569 0.068990
v -0.408990 0.916569 0.048284
v -0.416569 0.916569 0.020000
v -0.408990 0.916569 -0.008284
v -0.388284 0.916569 -0.028990
v -0.360000 0.916569 -0.036569
v -0.331716 0.916569 -0.028990
v -0.311010 0.916569 -0.008284
v -0.286090 0.890615 0.020000
v -0.295992 0.890615 0.056955
v -0.323045 0.890615 0.084008
v -0.360000 0.890615 0.093910
v -0.396955 0.890615 0.084008
v -0.424008 0.890615 0.056955
v -0.433910 0.890615 0.020000
v -0.424008 0.890615 -0.016955
v -0.396955 0.890615 -0.044008
v -0.360000 0.890615 -0.053910
v -0.323045 0.890615 -0.044008
v -0.295992 0.890615 -0.016955
v -0.280000 0.860000 0.020000
v -0.290718 0.860000 0.060000
v -0.320000 0.860000 0.089282
v -0.360000 0.860000 0.100000
v -0.400000 0.860000 0.089282
v -0.429282 0.860000 0.060000
v -0.440000 0.860000 0.020000
v -0.429282 0.860000 -0.020000
v -0.400000 0.860000 -0.049282
v -0.360000 0.860000 -0.060000
v -0.320000 0.860000 -0.049282
v -0.290718 0.860000 -0.020000
v -0.286090 0.829385 0.020000
v -0.295992 0.829385 0.056955
v -0.323045 0.829385 0.084008
v -0.360000 0.829385 0.093910
v -0.396955 0.829385 0.084008
v -0.424008 0.829385 0.056955
v -0.433910 0.829385 0.020000
v -0.424008 0.829385 -0.016955
v -0.396955 0.829385 -0.044008
v -0.360000 0.829385 -0.053910
v -0.323045 0.829385 -0.044008
v -0.295992 0.829385 -0.016955
v -0.303431 0.803431 0.020000
v -0.311010 0.803431 0.048284
v -0.331716 0.803431 0.068990
v -0.360000 0.803431 0.076569
v -0.388284 0.803431 0.068990
v -0.408990 0.803431 0.048284
v -0.416569 0.803431 0.020000
v -0.408990 0.803431 -0.008284
v -0.388284 0.803431 -0.028990
v -0.360000 0.803431 -0.036569
v -0.331716 0.803431 -0.028990
v -0.311010 0.803431 -0.008284
v -0.329385 0.786090 0.020000
v -0.333487 0.786090 0.035307
v -0.344693 0.786090 0.046513
v -0.360000 0.786090 0.050615
v -0.375307 0.786090 0.046513
v -0.386513 0.786090 0.035307
v -0.390615 0.786090 0.020000
v -0.386513 0.786090 0.004693
v -0.375307 0.786090 -0.006513
v -0.360000 0.786090 -0.010615
v -0.344693 0.786090 -0.006513
v -0.333487 0.786090 0.004693
v -0.360000 0.780000 0.020000
v -0.360000 0.780000 0.020000
v -0.360000 0.780000 0.020000
v -0.360000 0.780000 0.020000
v -0.360000 0.780000 0.020000
v -0.360000 0.780000 0.020000
v -0.360000 0.780000 0.020000
v -0.360000 0.780000 0.020000
v -0.360000 0.780000 0.020000
v -0.360000 0.780000 0.020000
v -0.360000 0.780000 0.020000
v -0.360000 0.780000 0.020000
f 305 306 318 317
f 306 307 319 318
f 307 308 320 319
f 308 309 321 320
f 309 310 322 321
f 310 311 323 322
f 311 312 324 323
f 312 313 325 324
f 313 314 326 325
f 314 315 327 326
f 315 316 328 327
f 316 305 317 328
f 317 318 330 329
f 318 319 331 330
f 319 320 332 331
f 320 321 333 332
f 321 322 334 333
f 322 323 335 334
f 323 324 336 335
f 324 325 337 336
f 325 326 338 337
f 326 327 339 338
f 327 328 340 339
f 328 317 329 340
f 329 330 342 341
f 330 331 343 342
f 331 332 344 343
f 332 333 345 344
f 333 334 346 345
f 334 335 347 346
f 335 336 348 347
f 336 337 349 348
f 337 338 350 349
f 338 339 351 350
f 339 340 352 351
f 340 329 341 352
f 341 342 354 353
f 342 343 355 354
f 343 344 356 355
f 344 345 357 356
f 345 346 358 357
f 346 347 359 358
f 347 348 360 359
f 348 349 361 360
f 349 350 362 361
f 350 351 363 362
f 351 352 364 363
f 352 341 353 364
f 353 354 366 365
f 354 355 367 366
f 355 356 368 367
f 356 357 369 368
f 357 358 370 369
f 358 359 371 370
f 359 360 372 371
f 360 361 373 372
f 361 362 374 373
f 362 363 375 374
f 363 364 376 375
f 364 353 365 376
f 365 366 378 377
f 366 367 379 378
f 367 368 380 379
f 368 369 381 380
f 369 370 382 381
f 370 371 383 382
f 371 372 384 383
f 372 373 385 384
f 373 374 386 385
f 374 375 387 386
f 375 376 388 387
f 376 365 377 388
f 377 378 390 389
f 378 379 391 390
f 379 380 392 391
f 380 381 393 392
f 381 382 394 393
f 382 383 395 394
f 383 384 396 395
f 384 385 397 396
f 385 386 398 397
f 386 387 399 398
f 387 388 400 399
f 388 377 389 400
f 389 390 402 401
f 390 391 403 402
f 391 392 404 403
f 392 393 405 404
f 393 394 406 405
f 394 395 407 406
f 395 396 408 407
f 396 397 409 408
f 397 398 410 409
f 398 399 411 410
f 399 400 412 411
f 400 389 401 412
o upper_arm_r
usemtl skin
v 0.450000 1.330000 0.000000
v 0.441087 1.330000 0.039050
v 0.416114 1.330000 0.070365
v 0.380027 1.330000 0.087744
v 0.339973 1.330000 0.087744
v 0.303886 1.330000 0.070365
v 0.278913 1.330000 0.039050
v 0.270000 1.330000 0.000000
v 0.278913 1.330000 -0.039050
v 0.303886 1.330000 -0.070365
v 0.339973 1.330000 -0.087744
v 0.380027 1.330000 -0.087744
v 0.416114 1.330000 -0.070365
v 0.441087 1.330000 -0.039050
v 0.450000 1.790000 0.000000
v 0.441087 1.790000 0.039050
v 0.416114 1.790000 0.070365
v 0.380027 1.790000 0.087744
v 0.339973 1.790000 0.087744
v 0.303886 1.790000 0.070365
v 0.278913 1.790000 0.039050
v 0.270000 1.790000 0.000000
v 0.278913 1.790000 -0.039050
v 0.303886 1.790000 -0.070365
v 0.339973 1.790000 -0.087744
v 0.380027 1.790000 -0.087744
v 0.416114 1.790000 -0.070365
v 0.441087 1.790000 -0.039050
v 0.360000 1.330000 0.000000
v 0.360000 1.790000 0.000000
f 413 414 428 427
f 414 415 429 428
f 415 416 430 429
f 416 417 431 430
f 417 418 432 431
f 418 419 433 432
f 419 420 434 433
f 420 421 435 434
f 421 422 436 435
f 422 423 437 436
f 423 424 438 437
f 424 425 439 438
f 425 426 440 439
f 426 413 427 440
f 441 414 413
f 442 427 428
f 441 415 414
f 442 428 429
f 441 416 415
f 442 429 430
f 441 417 416
f 442 430 431
f 441 418 417
f 442 431 432
f 441 419 418
f 442 432 433
f 441 420 419
f 442 433 434
f 441 421 420
f 442 434 435
f 441 422 421
f 442 435 436
f 441 423 422
f 442 436 437
f 441 424 423
f 442 437 438
f 441 425 424
f 442 438 439
f 441 426 425
f 442 439 440
f 441 413 426
f 442 440 427
o forearm_r
usemtl skin
v 0.435000 0.900000 0.000000
v 0.427573 0.900000 0.032541
v 0.406762 0.900000 0.058637
v 0.376689 0.900000 0.073120
v 0.343311 0.900000 0.073120
v 0.313238 0.900000 0.058637
v 0.292427 0.900000 0.032541
v 0.285000 0.900000 0.000000
v 0.292427 0.900000 -0.032541
v 0.313238 0.900000 -0.058637
v 0.343311 0.900000 -0.073120
v 0.376689 0.900000 -0.073120
v 0.406762 0.900000 -0.058637
v 0.427573 0.900000 -0.032541
v 0.435000 1.340000 0.000000
v 0.427573 1.340000 0.032541
v 0.406762 1.340000 0.058637
v 0.376689 1.340000 0.073120
v 0.343311 1.340000 0.073120
v 0.313238 1.340000 0.058637
v 0.292427 1.340000 0.032541
v 0.285000 1.340000 0.000000
v 0.292427 1.340000 -0.032541
v 0.313238 1.340000 -0.058637
v 0.343311 1.340000 -0.073120
v 0.376689 1.340000 -0.073120
v 0.406762 1.340000 -0.058637
v 0.427573 1.340000 -0.032541
v 0.360000 0.900000 0.000000
v 0.360000 1.340000 0.000000
f 443 444 458 457
f 444 445 459 458
f 445 446 460 459
f 446 447 461 460
f 447 448 462 461
f 448 449 463 462
f 449 450 464 463
f 450 451 465 464
f 451 452 466 465
f 452 453 467 466
f 453 454 468 467
f 454 455 469 468
f 455 456 470 469
f 456 443 457 470
f 471 444 443
f 472 457 458
f 471 445 444
f 472 458 459
f 471 446 445
f 472 459 460
f 471 447 446
f 472 460 461
f 471 448 447
f 472 461 462
f 471 449 448
f 472 462 463
f 471 450 449
f 472 463 464
f 471 451 450
f 472 464 465
f 471 452 451
f 472 465 466
f 471 453 452
f 472 466 467
f 471 454 453
f 472 467 468
f 471 455 454
f 472 468 469
f 471 456 455
f 472 469 470
f 471 443 456
f 472 470 457
o hand_r
usemtl skin
v 0.360000 0.940000 0.020000
v 0.360000 0.940000 0.020000
v 0.360000 0.940000 0.020000
v 0.360000 0.940000 0.020000
v 0.360000 0.940000 0.020000
v 0.360000 0.940000 0.020000
v 0.360000 0.940000 0.020000
v 0.360000 0.940000 0.020000
v 0.360000 0.940000 0.020000
v 0.360000 0.940000 0.020000
v 0.360000 0.940000 0.020000
v 0.360000 0.940000 0.020000
v 0.390615 0.933910 0.020000
v 0.386513 0.933910 0.035307
v 0.375307 0.933910 0.046513
v 0.360000 0.933910 0.050615
v 0.344693 0.933910 0.046513
v 0.333487 0.933910 0.035307
v 0.329385 0.933910 0.020000
v 0.333487 0.933910 0.004693
v 0.344693 0.933910 -0.006513
v 0.360000 0.933910 -0.010615
v 0.375307 0.933910 -0.006513
v 0.386513 0.933910 0.004693
v 0.416569 0.916569 0.020000
v 0.408990 0.916569 0.048284
v 0.388284 0.916569 0.068990
v 0.360000 0.916569 0.076569
v 0.331716 0.916569 0.068990
v 0.311010 0.916569 0.048284
v 0.303431 0.916569 0.020000
v 0.311010 0.916569 -0.008284
v 0.331716 0.916569 -0.028990
v 0.360000 0.916569 -0.036569
v 0.388284 0.916569 -0.028990
v 0.408990 0.916569 -0.008284
v 0.433910 0.890615 0.020000
v 0.424008 0.890615 0.056955
v 0.396955 0.890615 0.084008
v 0.360000 0.890615 0.093910
v 0.323045 0.890615 0.084008
v 0.295992 0.890615 0.056955
v 0.286090 0.890615 0.020000
v 0.295992 0.890615 -0.016955
v 0.323045 0.890615 -0.044008
v 0.360000 0.890615 -0.053910
v 0.396955 0.890615 -0.044008
v 0.424008 0.890615 -0.016955
v 0.440000 0.860000 0.020000
v 0.429282 0.860000 0.060000
v 0.400000 0.860000 0.089282
v 0.360000 0.860000 0.100000
v 0.320000 0.860000 0.089282
v 0.290718 0.860000 0.060000
v 0.280000 0.860000 0.020000
v 0.290718 0.860000 -0.020000
v 0.320000 0.860000 -0.049282
v 0.360000 0.860000 -0.060000
v 0.400000 0.860000 -0.049282
v 0.429282 0.860000 -0.020000
v 0.433910 0.829385 0.020000
v 0.424008 0.829385 0.056955
v 0.396955 0.829385 0.084008
v 0.360000 0.829385 0.093910
v 0.323045 0.829385 0.084008
v 0.295992 0.829385 0.056955
v 0.286090 0.829385 0.020000
v 0.295992 0.829385 -0.016955
v 0.323045 0.829385 -0.044008
v 0.360000 0.829385 -0.053910
v 0.396955 0.829385 -0.044008
v 0.424008 0.829385 -0.016955
v 0.416569 0.803431 0.020000
v 0.408990 0.803431 0.048284
v 0.388284 0.803431 0.068990
v 0.360000 0.803431 0.076569
v 0.331716 0.803431 0.068990
v 0.311010 0.803431 0.048284
v 0.303431 0.803431 0.020000
v 0.311010 0.803431 -0.008284
v 0.331716 0.803431 -0.028990
v 0.360000 0.803431 -0.036569
v 0.388284 0.803431 -0.028990
v 0.408990 0.803431 -0.008284
v 0.390615 0.786090 0.020000
v 0.386513 0.786090 0.035307
v 0.375307 0.786090 0.046513
v 0.360000 0.786090 0.050615
v 0.344693 0.786090 0.046513
v 0.333487 0.786090 0.035307
v 0.329385 0.786090 0.020000
v 0.333487 0.786090 0.004693
v 0.344693 0.786090 -0.006513
v 0.360000 0.786090 -0.010615
v 0.375307 0.786090 -0.006513
v 0.386513 0.786090 0.004693
v 0.360000 0.780000 0.020000
v 0.360000 0.780000 0.020000
v 0.360000 0.780000 0.020000
v 0.360000 0.780000 0.020000
v 0.360000 0.780000 0.020000
v 0.360000 0.780000 0.020000
v 0.360000 0.780000 0.020000
v 0.360000 0.780000 0.020000
v 0.360000 0.780000 0.020000
v 0.360000 0.780000 0.020000
v 0.360000 0.780000 0.020000
v 0.360000 0.780000 0.020000
f 473 474 486 485
f 474 475 487 486
f 475 476 488 487
f 476 477 489 488
f 477 478 490 489
f 478 479 491 490
f 479 480 492 491
f 480 481 493 492
f 481 482 494 493
f 482 483 495 494
f 483 484 496 495
f 484 473 485 496
f 485 486 498 497
f 486 487 499 498
f 487 488 500 499
f 488 489 501 500
f 489 490 502 501
f 490 491 503 502
f 491 492 504 503
f 492 493 505 504
f 493 494 506 505
f 494 495 507 506
f 495 496 508 507
f 496 485 497 508
f 497 498 510 509
f 498 499 511 510
f 499 500 512 511
f 500 501 513 512
f 501 502 514 513
f 502 503 515 514
f 503 504 516 515
f 504 505 517 516
f 505 506 518 517
f 506 507 519 518
f 507 508 520 519
f 508 497 509 520
f 509 510 522 521
f 510 511 523 522
f 511 512 524 523
f 512 513 525 524
f 513 514 526 525
f 514 515 527 526
f 515 516 528 527
f 516 517 529 528
f 517 518 530 529
f 518 519 531 530
f 519 520 532 531
f 520 509 521 532
f 521 522 534 533
f 522 523 535 534
f 523 524 536 535
f 524 525 537 536
f 525 526 538 537
f 526 527 539 538
f 527 528 540 539
f 528 529 541 540
f 529 530 542 541
f 530 531 543 542
f 531 532 544 543
f 532 521 533 544
f 533 534 546 545
f 534 535 547 546
f 535 536 548 547
f 536 537 549 548
f 537 538 550 549
f 538 539 551 550
f 539 540 552 551
f 540 541 553 552
f 541 542 554 553
f 542 543 555 554
f 543 544 556 555
f 544 533 545 556
f 545 546 558 557
f 546 547 559 558
f 547 548 560 559
f 548 549 561 560
f 549 550 562 561
f 550 551 563 562
f 551 552 564 563
f 552 553 565 564
f 553 554 566 565
f 554 555 567 566
f 555 556 568 567
f 556 545 557 568
f 557 558 570 569
f 558 559 571 570
f 559 560 572 571
f 560 561 573 572
f 561 562 574 573
f 562 563 575 574
f 563 564 576 575
f 564 565 577 576
f 565 566 578 577
f 566 567 579 578
f 567 568 580 579
f 568 557 569 580
o thigh_l
usemtl skin
v -0.050000 0.290000 0.000000
v -0.058373 0.290000 0.042095
v -0.082218 0.290000 0.077782
v -0.117905 0.290000 0.101627
v -0.160000 0.290000 0.110000
v -0.202095 0.290000 0.101627
v -0.237782 0.290000 0.077782
v -0.261627 0.290000 0.042095
v -0.270000 0.290000 0.000000
v -0.261627 0.290000 -0.042095
v -0.237782 0.290000 -0.077782
v -0.202095 0.290000 -0.101627
v -0.160000 0.290000 -0.110000
v -0.117905 0.290000 -0.101627
v -0.082218 0.290000 -0.077782
v -0.058373 0.290000 -0.042095
v -0.050000 1.030000 0.000000
v -0.058373 1.030000 0.042095
v -0.082218 1.030000 0.077782
v -0.117905 1.030000 0.101627
v -0.160000 1.030000 0.110000
v -0.202095 1.030000 0.101627
v -0.237782 1.030000 0.077782
v -0.261627 1.030000 0.042095
v -0.270000 1.030000 0.000000
v -0.261627 1.030000 -0.042095
v -0.237782 1.030000 -0.077782
v -0.202095 1.030000 -0.101627
v -0.160000 1.030000 -0.110000
v -0.117905 1.030000 -0.101627
v -0.082218 1.030000 -0.077782
v -0.058373 1.030000 -0.042095
v -0.160000 0.290000 0.000000
v -0.160000 1.030000 0.000000
f 581 582 598 597
f 582 583 599 598
f 583 584 600 599
f 584 585 601 600
f 585 586 602 601
f 586 587 603 602
f 587 588 604 603
f 588 589 605 604
f 589 590 606 605
f 590 591 607 606
f 591 592 608 607
f 592 593 609 608
f 593 594 610 609
f 594 595 611 610
f 595 596 612 611
f 596 581 597 612
f 613 582 581
f 614 597 598
f 613 583 582
f 614 598 599
f 613 584 583
f 614 599 600
f 613 585 584
f 614 600 601
f 613 586 585
f 614 601 602
f 613 587 586
f 614 602 603
f 613 588 587
f 614 603 604
f 613 589 588
f 614 604 605
f 613 590 589
f 614 605 606
f 613 591 590
f 614 606 607
f 613 592 591
f 614 607 608
f 613 593 592
f 614 608 609
f 613 594 593
f 614 609 610
f 613 595 594
f 614 610 611
f 613 596 595
f 614 611 612
f 613 581 596
f 614 612 597
o calf_l
usemtl skin
v -0.070000 -0.060000 0.000000
v -0.076851 -0.060000 0.034442
v -0.096360 -0.060000 0.063640
v -0.125558 -0.060000 0.083149
v -0.160000 -0.060000 0.090000
v -0.194442 -0.060000 0.083149
v -0.223640 -0.060000 0.063640
v -0.243149 -0.060000 0.034442
v -0.250000 -0.060000 0.000000
v -0.243149 -0.060000 -0.034442
v -0.223640 -0.060000 -0.063640
v -0.194442 -0.060000 -0.083149
v -0.160000 -0.060000 -0.090000
v -0.125558 -0.060000 -0.083149
v -0.096360 -0.060000 -0.063640
v -0.076851 -0.060000 -0.034442
v -0.070000 0.500000 0.000000
v -0.076851 0.500000 0.034442
v -0.096360 0.500000 0.063640
v -0.125558 0.500000 0.083149
v -0.160000 0.500000 0.090000
v -0.194442 0.500000 0.083149
v -0.223640 0.500000 0.063640
v -0.243149 0.500000 0.034442
v -0.250000 0.500000 0.000000
v -0.243149 0.500000 -0.034442
v -0.223640 0.500000 -0.063640
v -0.194442 0.500000 -0.083149
v -0.160000 0.500000 -0.090000
v -0.125558 0.500000 -0.083149
v -0.096360 0.500000 -0.063640
v -0.076851 0.500000 -0.034442
v -0.160000 -0.060000 0.000000
v -0.160000 0.500000 0.000000
f 615 616 632 631
f 616 617 633 632
f 617 618 634 633
f 618 619 635 634
f 619 620 636 635
f 620 621 637 636
f 621 622 638 637
f 622 623 639 638
f 623 624 640 639
f 624 625 641 640
f 625 626 642 641
f 626 627 643 642
f 627 628 644 643
f 628 629 645 644
f 629 630 646 645
f 630 615 631 646
f 647 616 615
f 648 631 632
f 647 617 616
f 648 632 633
f 647 618 617
f 648 633 634
f 647 619 618
f 648 634 635
f 647 620 619
f 648 635 636
f 647 621 620
f 648 636 637
f 647 622 621
f 648 637 638
f 647 623 622
f 648 638 639
f 647 624 623
f 648 639 640
f 647 625 624
f 648 640 641
f 647 626 625
f 648 641 642
f 647 627 626
f 648 642 643
f 647 628 627
f 648 643 644
f 647 629 628
f 648 644 645
f 647 630 629
f 648 645 646
f 647 615 630
f 648 646 631
o foot_l
usemtl skin
v -0.250000 -0.115000 -0.100000
v -0.070000 -0.115000 -0.100000
v -0.070000 -0.045000 -0.100000
v -0.250000 -0.045000 -0.100000
v -0.250000 -0.115000 0.260000
v -0.070000 -0.115000 0.260000
v -0.070000 -0.045000 0.260000
v -0.250000 -0.045000 0.260000
f 649 650 651 652
f 653 656 655 654
f 649 653 654 650
f 650 654 655 651
f 651 655 656 652
f 653 649 652 656
o thigh_r
usemtl skin
v 0.270000 0.290000 0.000000
v 0.261627 0.290000 0.042095
v 0.237782 0.290000 0.077782
v 0.202095 0.290000 0.101627
v 0.160000 0.290000 0.110000
v 0.117905 0.290000 0.101627
v 0.082218 0.290000 0.077782
v 0.058373 0.290000 0.042095
v 0.050000 0.290000 0.000000
v 0.058373 0.290000 -0.042095
v 0.082218 0.290000 -0.077782
v 0.117905 0.290000 -0.101627
v 0.160000 0.290000 -0.110000
v 0.202095 0.290000 -0.101627
v 0.237782 0.290000 -0.077782
v 0.261627 0.290000 -0.042095
v 0.270000 1.030000 0.000000
v 0.261627 1.030000 0.042095
v 0.237782 1.030000 0.077782
v 0.202095 1.030000 0.101627
v 0.160000 1.030000 0.110000
v 0.117905 1.030000 0.101627
v 0.082218 1.030000 0.077782
v 0.058373 1.030000 0.042095
v 0.050000 1.030000 0.000000
v 0.058373 1.030000 -0.042095
v 0.082218 1.030000 -0.077782
v 0.117905 1.030000 -0.101627
v 0.160000 1.030000 -0.110000
v 0.202095 1.030000 -0.101627
v 0.237782 1.030000 -0.077782
v 0.261627 1.030000 -0.042095
v 0.160000 0.290000 0.000000
v 0.160000 1.030000 0.000000
f 657 658 674 673
f 658 659 675 674
f 659 660 676 675
f 660 661 677 676
f 661 662 678 677
f 662 663 679 678
f 663 664 680 679
f 664 665 681 680
f 665 666 682 681
f 666 667 683 682
f 667 668 684 683
f 668 669 685 684
f 669 670 686 685
f 670 671 687 686
f 671 672 688 687
f 672 657 673 688
f 689 658 657
f 690 673 674
f 689 659 658
f 690 674 675
f 689 660 659
f 690 675 676
f 689 661 660
f 690 676 677
f 689 662 661
f 690 677 678
f 689 663 662
f 690 678 679
f 689 664 663
f 690 679 680
f 689 665 664
f 690 680 681
f 689 666 665
f 690 681 682
f 689 667 666
f 690 682 683
f 689 668 667
f 690 683 684
f 689 669 668
f 690 684 685
f 689 670 669
f 690 685 686
f 689 671 670
f 690 686 687
f 689 672 671
f 690 687 688
f 689 657 672
f 690 688 673
o calf_r
usemtl skin
v 0.250000 -0.060000 0.000000
v 0.243149 -0.060000 0.034442
v 0.223640 -0.060000 0.063640
v 0.194442 -0.060000 0.083149
v 0.160000 -0.060000 0.090000
v 0.125558 -0.060000 0.083149
v 0.096360 -0.060000 0.063640
v 0.076851 -0.060000 0.034442
v 0.070000 -0.060000 0.000000
v 0.076851 -0.060000 -0.034442
v 0.096360 -0.060000 -0.063640
v 0.125558 -0.060000 -0.083149
v 0.160000 -0.060000 -0.090000
v 0.194442 -0.060000 -0.083149
v 0.223640 -0.060000 -0.063640
v 0.243149 -0.060000 -0.034442
v 0.250000 0.500000 0.000000
v 0.243149 0.500000 0.034442
v 0.223640 0.500000 0.063640
v 0.194442 0.500000 0.083149
v 0.160000 0.500000 0.090000
v 0.125558 0.500000 0.083149
v 0.096360 0.500000 0.063640
v 0.076851 0.500000 0.034442
v 0.070000 0.500000 0.000000
v 0.076851 0.500000 -0.034442
v 0.096360 0.500000 -0.063640
v 0.125558 0.500000 -0.083149
v 0.160000 0.500000 -0.090000
v 0.194442 0.500000 -0.083149
v 0.223640 0.500000 -0.063640
v 0.243149 0.500000 -0.034442
v 0.160000 -0.060000 0.000000
v 0.160000 0.500000 0.000000
f 691 692 708 707
f 692 693 709 708
f 693 694 710 709
f 694 695 711 710
f 695 696 712 711
f 696 697 713 712
f 697 698 714 713
f 698 699 715 714
f 699 700 716 715
f 700 701 717 716
f 701 702 718 717
f 702 703 719 718
f 703 704 720 719
f 704 705 721 720
f 705 706 722 721
f 706 691 707 722
f 723 692 691
f 724 707 708
f 723 693 692
f 724 708 709
f 723 694 693
f 724 709 710
f 723 695 694
f 724 710 711
f 723 696 695
f 724 711 712
f 723 697 696
f 724 712 713
f 723 698 697
f 724 713 714
f 723 699 698
f 724 714 715
f 723 700 699
f 724 715 716
f 723 701 700
f 724 716 717
f 723 702 701
f 724 717 718
f 723 703 702
f 724 718 719
f 723 704 703
f 724 719 720
f 723 705 704
f 724 720 721
f 723 706 705
f 724 721 722
f 723 691 706
f 724 722 707
o foot_r
usemtl skin
v 0.070000 -0.115000 -0.100000
v 0.250000 -0.115000 -0.100000
v 0.250000 -0.045000 -0.100000
v 0.070000 -0.045000 -0.100000
v 0.070000 -0.115000 0.260000
v 0.250000 -0.115000 0.260000
v 0.250000 -0.045000 0.260000
v 0.070000 -0.045000 0.260000
f 725 726 727 728
f 729 732 731 730
f 725 729 730 726
f 726 730 731 727
f 727 731 732 728
f 729 725 728 732
o shorts_waist
usemtl shorts
v -0.280000 0.790000 -0.170000
v 0.280000 0.790000 -0.170000
v 0.280000 1.110000 -0.170000
v -0.280000 1.110000 -0.170000
v -0.280000 0.790000 0.170000
v 0.280000 0.790000 0.170000
v 0.280000 1.110000 0.170000
v -0.280000 1.110000 0.170000
f 733 734 735 736
f 737 740 739 738
f 733 737 738 734
f 734 738 739 735
f 735 739 740 736
f 737 733 736 740
o short_leg_l
usemtl shorts
v -0.030000 0.650000 0.000000
v -0.039896 0.650000 0.049749
v -0.068076 0.650000 0.091924
v -0.110251 0.650000 0.120104
v -0.160000 0.650000 0.130000
v -0.209749 0.650000 0.120104
v -0.251924 0.650000 0.091924
v -0.280104 0.650000 0.049749
v -0.290000 0.650000 0.000000
v -0.280104 0.650000 -0.049749
v -0.251924 0.650000 -0.091924
v -0.209749 0.650000 -0.120104
v -0.160000 0.650000 -0.130000
v -0.110251 0.650000 -0.120104
v -0.068076 0.650000 -0.091924
v -0.039896 0.650000 -0.049749
v -0.030000 0.910000 0.000000
v -0.039896 0.910000 0.049749
v -0.068076 0.910000 0.091924
v -0.110251 0.910000 0.120104
v -0.160000 0.910000 0.130000
v -0.209749 0.910000 0.120104
v -0.251924 0.910000 0.091924
v -0.280104 0.910000 0.049749
v -0.290000 0.910000 0.000000
v -0.280104 0.910000 -0.049749
v -0.251924 0.910000 -0.091924
v -0.209749 0.910000 -0.120104
v -0.160000 0.910000 -0.130000
v -0.110251 0.910000 -0.120104
v -0.068076 0.910000 -0.091924
v -0.039896 0.910000 -0.049749
v -0.160000 0.650000 0.000000
v -0.160000 0.910000 0.000000
f 741 742 758 757
f 742 743 759 758
f 743 744 760 759
f 744 745 761 760
f 745 746 762 761
f 746 747 763 762
f 747 748 764 763
f 748 749 765 764
f 749 750 766 765
f 750 751 767 766
f 751 752 768 767
f 752 753 769 768
f 753 754 770 769
f 754 755 771 770
f 755 756 772 771
f 756 741 757 772
f 773 742 741
f 774 757 758
f 773 743 742
f 774 758 759
f 773 744 743
f 774 759 760
f 773 745 744
f 774 760 761
f 773 746 745
f 774 761 762
f 773 747 746
f 774 762 763
f 773 748 747
f 774 763 764
f 773 749 748
f 774 764 765
f 773 750 749
f 774 765 766
f 773 751 750
f 774 766 767
f 773 752 751
f 774 767 768
f 773 753 752
f 774 768 769
f 773 754 753
f 774 769 770
f 773 755 754
f 774 770 771
f 773 756 755
f 774 771 772
f 773 741 756
f 774 772 757
o short_leg_r
usemtl shorts
v 0.290000 0.650000 0.000000
v 0.280104 0.650000 0.049749
v 0.251924 0.650000 0.091924
v 0.209749 0.650000 0.120104
v 0.160000 0.650000 0.130000
v 0.110251 0.650000 0.120104
v 0.068076 0.650000 0.091924
v 0.039896 0.650000 0.049749
v 0.030000 0.650000 0.000000
v 0.039896 0.650000 -0.049749
v 0.068076 0.650000 -0.091924
v 0.110251 0.650000 -0.120104
v 0.160000 0.650000 -0.130000
v 0.209749 0.650000 -0.120104
v 0.251924 0.650000 -0.091924
v 0.280104 0.650000 -0.049749
v 0.290000 0.910000 0.000000
v 0.280104 0.910000 0.049749
v 0.251924 0.910000 0.091924
v 0.209749 0.910000 0.120104
v 0.160000 0.910000 0.130000
v 0.110251 0.910000 0.120104
v 0.068076 0.910000 0.091924
v 0.039896 0.910000 0.049749
v 0.030000 0.910000 0.000000
v 0.039896 0.910000 -0.049749
v 0.068076 0.910000 -0.091924
v 0.110251 0.910000 -0.120104
v 0.160000 0.910000 -0.130000
v 0.209749 0.910000 -0.120104
v 0.251924 0.910000 -0.091924
v 0.280104 0.910000 -0.049749
v 0.160000 0.650000 0.000000
v 0.160000 0.910000 0.000000
f 775 776 792 791
f 776 777 793 792
f 777 778 794 793
f 778 779 795 794
f 779 780 796 795
f 780 781 797 796
f 781 782 798 797
f 782 783 799 798
f 783 784 800 799
f 784 785 801 800
f 785 786 802 801
f 786 787 803 802
f 787 788 804 803
f 788 789 805 804
f 789 790 806 805
f 790 775 791 806
f 807 776 775
f 808 791 792
f 807 777 776
f 808 792 793
f 807 778 777
f 808 793 794
f 807 779 778
f 808 794 795
f 807 780 779
f 808 795 796
f 807 781 780
f 808 796 797
f 807 782 781
f 808 797 798
f 807 783 782
f 808 798 799
f 807 784 783
f 808 799 800
f 807 785 784
f 808 800 801
f 807 786 785
f 808 801 802
f 807 787 786
f 808 802 803
f 807 788 787
f 808 803 804
f 807 789 788
f 808 804 805
f 807 790 789
f 808 805 806
f 807 775 790
f 808 806 791
o bandana
usemtl bandana
v 0.245000 2.190000 0.000000
v 0.226350 2.190000 0.093757
v 0.173241 2.190000 0.173241
v 0.093757 2.190000 0.226350
v 0.000000 2.190000 0.245000
v -0.093757 2.190000 0.226350
v -0.173241 2.190000 0.173241
v -0.226350 2.190000 0.093757
v -0.245000 2.190000 0.000000
v -0.226350 2.190000 -0.093757
v -0.173241 2.190000 -0.173241
v -0.093757 2.190000 -0.226350
v -0.000000 2.190000 -0.245000
v 0.093757 2.190000 -0.226350
v 0.173241 2.190000 -0.173241
v 0.226350 2.190000 -0.093757
v 0.245000 2.290000 0.000000
v 0.226350 2.290000 0.093757
v 0.173241 2.290000 0.173241
v 0.093757 2.290000 0.226350
v 0.000000 2.290000 0.245000
v -0.093757 2.290000 0.226350
v -0.173241 2.290000 0.173241
v -0.226350 2.290000 0.093757
v -0.245000 2.290000 0.000000
v -0.226350 2.290000 -0.093757
v -0.173241 2.290000 -0.173241
v -0.093757 2.290000 -0.226350
v -0.000000 2.290000 -0.245000
v 0.093757 2.290000 -0.226350
v 0.173241 2.290000 -0.173241
v 0.226350 2.290000 -0.093757
v 0.000000 2.190000 0.000000
v 0.000000 2.290000 0.000000
f 809 810 826 825
f 810 811 827 826
f 811 812 828 827
f 812 813 829 828
f 813 814 830 829
f 814 815 831 830
f 815 816 832 831
f 816 817 833 832
f 817 818 834 833
f 818 819 835 834
f 819 820 836 835
f 820 821 837 836
f 821 822 838 837
f 822 823 839 838
f 823 824 840 839
f 824 809 825 840
f 841 810 809
f 842 825 826
f 841 811 810
f 842 826 827
f 841 812 811
f 842 827 828
f 841 813 812
f 842 828 829
f 841 814 813
f 842 829 830
f 841 815 814
f 842 830 831
f 841 816 815
f 842 831 832
f 841 817 816
f 842 832 833
f 841 818 817
f 842 833 834
f 841 819 818
f 842 834 835
f 841 820 819
f 842 835 836
f 841 821 820
f 842 836 837
f 841 822 821
f 842 837 838
f 841 823 822
f 842 838 839
f 841 824 823
f 842 839 840
f 841 809 824
f 842 840 825
o dread_0
usemtl hair
v -0.150542 1.650000 -0.064984
v -0.158743 1.650000 -0.045185
v -0.178542 1.650000 -0.036984
v -0.198341 1.650000 -0.045185
v -0.206542 1.650000 -0.064984
v -0.198341 1.650000 -0.084783
v -0.178542 1.650000 -0.092984
v -0.158743 1.650000 -0.084783
v -0.150542 2.230000 -0.064984
v -0.158743 2.230000 -0.045185
v -0.178542 2.230000 -0.036984
v -0.198341 2.230000 -0.045185
v -0.206542 2.230000 -0.064984
v -0.198341 2.230000 -0.084783
v -0.178542 2.230000 -0.092984
v -0.158743 2.230000 -0.084783
v -0.178542 1.650000 -0.064984
v -0.178542 2.230000 -0.064984
f 843 844 852 851
f 844 845 853 852
f 845 846 854 853
f 846 847 855 854
f 847 848 856 855
f 848 849 857 856
f 849 850 858 857
f 850 843 851 858
f 859 844 843
f 860 851 852
f 859 845 844
f 860 852 853
f 859 846 845
f 860 853 854
f 859 847 846
f 860 854 855
f 859 848 847
f 860 855 856
f 859 849 848
f 860 856 857
f 859 850 849
f 860 857 858
f 859 843 850
f 860 858 851
o dread_1
usemtl hair
v -0.129517 1.650000 -0.106247
v -0.137718 1.650000 -0.086448
v -0.157517 1.650000 -0.078247
v -0.177316 1.650000 -0.086448
v -0.185517 1.650000 -0.106247
v -0.177316 1.650000 -0.126046
v -0.157517 1.650000 -0.134247
v -0.137718 1.650000 -0.126046
v -0.129517 2.230000 -0.106247
v -0.137718 2.230000 -0.086448
v -0.157517 2.230000 -0.078247
v -0.177316 2.230000 -0.086448
v -0.185517 2.230000 -0.106247
v -0.177316 2.230000 -0.126046
v -0.157517 2.230000 -0.134247
v -0.137718 2.230000 -0.126046
v -0.157517 1.650000 -0.106247
v -0.157517 2.230000 -0.106247
f 861 862 870 869
f 862 863 871 870
f 863 864 872 871
f 864 865 873 872
f 865 866 874 873
f 866 867 875 874
f 867 868 876 875
f 868 861 869 876
f 877 862 861
f 878 869 870
f 877 863 862
f 878 870 871
f 877 864 863
f 878 871 872
f 877 865 864
f 878 872 873
f 877 866 865
f 878 873 874
f 877 867 866
f 878 874 875
f 877 868 867
f 878 875 876
f 877 861 868
f 878 876 869
o dread_2
usemtl hair
v -0.099135 1.650000 -0.141198
v -0.107336 1.650000 -0.121399
v -0.127135 1.650000 -0.113198
v -0.146934 1.650000 -0.121399
v -0.155135 1.650000 -0.141198
v -0.146934 1.650000 -0.160997
v -0.127135 1.650000 -0.169198
v -0.107336 1.650000 -0.160997
v -0.099135 2.230000 -0.141198
v -0.107336 2.230000 -0.121399
v -0.127135 2.230000 -0.113198
v -0.146934 2.230000 -0.121399
v -0.155135 2.230000 -0.141198
v -0.146934 2.230000 -0.160997
v -0.127135 2.230000 -0.169198
v -0.107336 2.230000 -0.160997
v -0.127135 1.650000 -0.141198
v -0.127135 2.230000 -0.141198
f 879 880 888 887
f 880 881 889 888
f 881 882 890 889
f 882 883 891 890
f 883 884 892 891
f 884 885 893 892
f 885 886 894 893
f 886 879 887 894
f 895 880 879
f 896 887 888
f 895 881 880
f 896 888 889
f 895 882 881
f 896 889 890
f 895 883 882
f 896 890 891
f 895 884 883
f 896 891 892
f 895 885 884
f 896 892 893
f 895 886 885
f 896 893 894
f 895 879 886
f 896 894 887
o dread_3
usemtl hair
v -0.061200 1.650000 -0.167760
v -0.069401 1.650000 -0.147961
v -0.089200 1.650000 -0.139760
v -0.108999 1.650000 -0.147961
v -0.117200 1.650000 -0.167760
v -0.108999 1.650000 -0.187559
v -0.089200 1.650000 -0.195760
v -0.069401 1.650000 -0.187559
v -0.061200 2.230000 -0.167760
v -0.069401 2.230000 -0.147961
v -0.089200 2.230000 -0.139760
v -0.108999 2.230000 -0.147961
v -0.117200 2.230000 -0.167760
v -0.108999 2.230000 -0.187559
v -0.089200 2.230000 -0.195760
v -0.069401 2.230000 -0.187559
v -0.089200 1.650000 -0.167760
v -0.089200 2.230000 -0.167760
f 897 898 906 905
f 898 899 907 906
f 899 900 908 907
f 900 901 909 908
f 901 902 910 909
f 902 903 911 910
f 903 904 912 911
f 904 897 905 912
f 913 898 897
f 914 905 906
f 913 899 898
f 914 906 907
f 913 900 899
f 914 907 908
f 913 901 900
f 914 908 909
f 913 902 901
f 914 909 910
f 913 903 902
f 914 910 911
f 913 904 903
f 914 911 912
f 913 897 904
f 914 912 905
o dread_4
usemtl hair
v -0.017965 1.650000 -0.184356
v -0.026166 1.650000 -0.164557
v -0.045965 1.650000 -0.156356
v -0.065764 1.650000 -0.164557
v -0.073965 1.650000 -0.184356
v -0.065764 1.650000 -0.204155
v -0.045965 1.650000 -0.212356
v -0.026166 1.650000 -0.204155
v -0.017965 2.230000 -0.184356
v -0.026166 2.230000 -0.164557
v -0.045965 2.230000 -0.156356
v -0.065764 2.230000 -0.164557
v -0.073965 2.230000 -0.184356
v -0.065764 2.230000 -0.204155
v -0.045965 2.230000 -0.212356
v -0.026166 2.230000 -0.204155
v -0.045965 1.650000 -0.184356
v -0.045965 2.230000 -0.184356
f 915 916 924 923
f 916 917 925 924
f 917 918 926 925
f 918 919 927 926
f 919 920 928 927
f 920 921 929 928
f 921 922 930 929
f 922 915 923 930
f 931 916 915
f 932 923 924
f 931 917 916
f 932 924 925
f 931 918 917
f 932 925 926
f 931 919 918
f 932 926 927
f 931 920 919
f 932 927 928
f 931 921 920
f 932 928 929
f 931 922 921
f 932 929 930
f 931 915 922
f 932 930 923
o dread_5
usemtl hair
v 0.028000 1.650000 -0.190000
v 0.019799 1.650000 -0.170201
v -0.000000 1.650000 -0.162000
v -0.019799 1.650000 -0.170201
v -0.028000 1.650000 -0.190000
v -0.019799 1.650000 -0.209799
v -0.000000 1.650000 -0.218000
v 0.019799 1.650000 -0.209799
v 0.028000 2.230000 -0.190000
v 0.019799 2.230000 -0.170201
v -0.000000 2.230000 -0.162000
v -0.019799 2.230000 -0.170201
v -0.028000 2.230000 -0.190000
v -0.019799 2.230000 -0.209799
v -0.000000 2.230000 -0.218000
v 0.019799 2.230000 -0.209799
v -0.000000 1.650000 -0.190000
v -0.000000 2.230000 -0.190000
f 933 934 942 941
f 934 935 943 942
f 935 936 944 943
f 936 937 945 944
f 937 938 946 945
f 938 939 947 946
f 939 940 948 947
f 940 933 941 948
f 949 934 933
f 950 941 942
f 949 935 934
f 950 942 943
f 949 936 935
f 950 943 944
f 949 937 936
f 950 944 945
f 949 938 937
f 950 945 946
f 949 939 938
f 950 946 947
f 949 940 939
f 950 947 948
f 949 933 940
f 950 948 941
o dread_6
usemtl hair
v 0.073965 1.650000 -0.184356
v 0.065764 1.650000 -0.164557
v 0.045965 1.650000 -0.156356
v 0.026166 1.650000 -0.164557
v 0.017965 1.650000 -0.184356
v 0.026166 1.650000 -0.204155
v 0.045965 1.650000 -0.212356
v 0.065764 1.650000 -0.204155
v 0.073965 2.230000 -0.184356
v 0.065764 2.230000 -0.164557
v 0.045965 2.230000 -0.156356
v 0.026166 2.230000 -0.164557
v 0.017965 2.230000 -0.184356
v 0.026166 2.230000 -0.204155
v 0.045965 2.230000 -0.212356
v 0.065764 2.230000 -0.204155
v 0.045965 1.650000 -0.184356
v 0.045965 2.230000 -0.184356
f 951 952 960 959
f 952 953 961 960
f 953 954 962 961
f 954 955 963 962
f 955 956 964 963
f 956 957 965 964
f 957 958 966 965
f 958 951 959 966
f 967 952 951
f 968 959 960
f 967 953 952
f 968 960 961
f 967 954 953
f 968 961 962
f 967 955 954
f 968 962 963
f 967 956 955
f 968 963 964
f 967 957 956
f 968 964 965
f 967 958 957
f 968 965 966
f 967 951 958
f 968 966 959
o dread_7
usemtl hair
v 0.117200 1.650000 -0.167760
v 0.108999 1.650000 -0.147961
v 0.089200 1.650000 -0.139760
v 0.069401 1.650000 -0.147961
v 0.061200 1.650000 -0.167760
v 0.069401 1.650000 -0.187559
v 0.089200 1.650000 -0.195760
v 0.108999 1.650000 -0.187559
v 0.117200 2.230000 -0.167760
v 0.108999 2.230000 -0.147961
v 0.089200 2.230000 -0.139760
v 0.069401 2.230000 -0.147961
v 0.061200 2.230000 -0.167760
v 0.069401 2.230000 -0.187559
v 0.089200 2.230000 -0.195760
v 0.108999 2.230000 -0.187559
v 0.089200 1.650000 -0.167760
v 0.089200 2.230000 -0.167760
f 969 970 978 977
f 970 971 979 978
f 971 972 980 979
f 972 973 981 980
f 973 974 982 981
f 974 975 983 982
f 975 976 984 983
f 976 969 977 984
f 985 970 969
f 986 977 978
f 985 971 970
f 986 978 979
f 985 972 971
f 986 979 980
f 985 973 972
f 986 980 981
f 985 974 973
f 986 981 982
f 985 975 974
f 986 982 983
f 985 976 975
f 986 983 984
f 985 969 976
f 986 984 977
o dread_8
usemtl hair
v 0.155135 1.650000 -0.141198
v 0.146934 1.650000 -0.121399
v 0.127135 1.650000 -0.113198
v 0.107336 1.650000 -0.121399
v 0.099135 1.650000 -0.141198
v 0.107336 1.650000 -0.160997
v 0.127135 1.650000 -0.169198
v 0.146934 1.650000 -0.160997
v 0.155135 2.230000 -0.141198
v 0.146934 2.230000 -0.121399
v 0.127135 2.230000 -0.113198
v 0.107336 2.230000 -0.121399
v 0.099135 2.230000 -0.141198
v 0.107336 2.230000 -0.160997
v 0.127135 2.230000 -0.169198
v 0.146934 2.230000 -0.160997
v 0.127135 1.650000 -0.141198
v 0.127135 2.230000 -0.141198
f 987 988 996 995
f 988 989 997 996
f 989 990 998 997
f 990 991 999 998
f 991 992 1000 999
f 992 993 1001 1000
f 993 994 1002 1001
f 994 987 995 1002
f 1003 988 987
f 1004 995 996
f 1003 989 988
f 1004 996 997
f 1003 990 989
f 1004 997 998
f 1003 991 990
f 1004 998 999
f 1003 992 991
f 1004 999 1000
f 1003 993 992
f 1004 1000 1001
f 1003 994 993
f 1004 1001 1002
f 1003 987 994
f 1004 1002 995
o dread_9
usemtl hair
v 0.185517 1.650000 -0.106247
v 0.177316 1.650000 -0.086448
v 0.157517 1.650000 -0.078247
v 0.137718 1.650000 -0.086448
v 0.129517 1.650000 -0.106247
v 0.137718 1.650000 -0.126046
v 0.157517 1.650000 -0.134247
v 0.177316 1.650000 -0.126046
v 0.185517 2.230000 -0.106247
v 0.177316 2.230000 -0.086448
v 0.157517 2.230000 -0.078247
v 0.137718 2.230000 -0.086448
v 0.129517 2.230000 -0.106247
v 0.137718 2.230000 -0.126046
v 0.157517 2.230000 -0.134247
v 0.177316 2.230000 -0.126046
v 0.157517 1.650000 -0.106247
v 0.157517 2.230000 -0.106247
f 1005 1006 1014 1013
f 1006 1007 1015 1014
f 1007 1008 1016 1015
f 1008 1009 1017 1016
f 1009 1010 1018 1017
f 1010 1011 1019 1018
f 1011 1012 1020 1019
f 1012 1005 1013 1020
f 1021 1006 1005
f 1022 1013 1014
f 1021 1007 1006
f 1022 1014 1015
f 1021 1008 1007
f 1022 1015 1016
f 1021 1009 1008
f 1022 1016 1017
f 1021 1010 1009
f 1022 1017 1018
f 1021 1011 1010
f 1022 1018 1019
f 1021 1012 1011
f 1022 1019 1020
f 1021 1005 1012
f 1022 1020 1013
o dread_10
usemtl hair
v 0.206542 1.650000 -0.064984
v 0.198341 1.650000 -0.045185
v 0.178542 1.650000 -0.036984
v 0.158743 1.650000 -0.045185
v 0.150542 1.650000 -0.064984
v 0.158743 1.650000 -0.084783
v 0.178542 1.650000 -0.092984
v 0.198341 1.650000 -0.084783
v 0.206542 2.230000 -0.064984
v 0.198341 2.230000 -0.045185
v 0.178542 2.230000 -0.036984
v 0.158743 2.230000 -0.045185
v 0.150542 2.230000 -0.064984
v 0.158743 2.230000 -0.084783
v 0.178542 2.230000 -0.092984
v 0.198341 2.230000 -0.084783
v 0.178542 1.650000 -0.064984
v 0.178542 2.230000 -0.064984
f 1023 1024 1032 1031
f 1024 1025 1033 1032
f 1025 1026 1034 1033
f 1026 1027 1035 1034
f 1027 1028 1036 1035
f 1028 1029 1037 1036
f 1029 1030 1038 1037
f 1030 1023 1031 1038
f 1039 1024 1023
f 1040 1031 1032
f 1039 1025 1024
f 1040 1032 1033
f 1039 1026 1025
f 1040 1033 1034
f 1039 1027 1026
f 1040 1034 1035
f 1039 1028 1027
f 1040 1035 1036
f 1039 1029 1028
f 1040 1036 1037
f 1039 1030 1029
f 1040 1037 1038
f 1039 1023 1030
f 1040 1038 1031
o necklace
usemtl beard
v -0.200000 1.835000 0.100000
v -0.200000 1.832990 0.107500
v -0.200000 1.827500 0.112990
v -0.200000 1.820000 0.115000
v -0.200000 1.812500 0.112990
v -0.200000 1.807010 0.107500
v -0.200000 1.805000 0.100000
v -0.200000 1.807010 0.092500
v -0.200000 1.812500 0.087010
v -0.200000 1.820000 0.085000
v -0.200000 1.827500 0.087010
v -0.200000 1.832990 0.092500
v 0.200000 1.835000 0.100000
v 0.200000 1.832990 0.107500
v 0.200000 1.827500 0.112990
v 0.200000 1.820000 0.115000
v 0.200000 1.812500 0.112990
v 0.200000 1.807010 0.107500
v 0.200000 1.805000 0.100000
v 0.200000 1.807010 0.092500
v 0.200000 1.812500 0.087010
v 0.200000 1.820000 0.085000
v 0.200000 1.827500 0.087010
v 0.200000 1.832990 0.092500
v -0.200000 1.820000 0.100000
v 0.200000 1.820000 0.100000
f 1041 1042 1054 1053
f 1042 1043 1055 1054
f 1043 1044 1056 1055
f 1044 1045 1057 1056
f 1045 1046 1058 1057
f 1046 1047 1059 1058
f 1047 1048 1060 1059
f 1048 1049 1061 1060
f 1049 1050 1062 1061
f 1050 1051 1063 1062
f 1051 1052 1064 1063
f 1052 1041 1053 1064
f 1065 1042 1041
f 1066 1053 1054
f 1065 1043 1042
f 1066 1054 1055
f 1065 1044 1043
f 1066 1055 1056
f 1065 1045 1044
f 1066 1056 1057
f 1065 1046 1045
f 1066 1057 1058
f 1065 1047 1046
f 1066 1058 1059
f 1065 1048 1047
f 1066 1059 1060
f 1065 1049 1048
f 1066 1060 1061
f 1065 1050 1049
f 1066 1061 1062
f 1065 1051 1050
f 1066 1062 1063
f 1065 1052 1051
f 1066 1063 1064
f 1065 1041 1052
f 1066 1064 1053
o tooth_pendant
usemtl tooth
v 0.040000 1.650000 0.220000
v 0.032361 1.650000 0.243511
v 0.012361 1.650000 0.258042
v -0.012361 1.650000 0.258042
v -0.032361 1.650000 0.243511
v -0.040000 1.650000 0.220000
v -0.032361 1.650000 0.196489
v -0.012361 1.650000 0.181958
v 0.012361 1.650000 0.181958
v 0.032361 1.650000 0.196489
v 0.040000 1.750000 0.220000
v 0.032361 1.750000 0.243511
v 0.012361 1.750000 0.258042
v -0.012361 1.750000 0.258042
v -0.032361 1.750000 0.243511
v -0.040000 1.750000 0.220000
v -0.032361 1.750000 0.196489
v -0.012361 1.750000 0.181958
v 0.012361 1.750000 0.181958
v 0.032361 1.750000 0.196489
v 0.000000 1.650000 0.220000
v 0.000000 1.750000 0.220000
f 1067 1068 1078 1077
f 1068 1069 1079 1078
f 1069 1070 1080 1079
f 1070 1071 1081 1080
f 1071 1072 1082 1081
f 1072 1073 1083 1082
f 1073 1074 1084 1083
f 1074 1075 1085 1084
f 1075 1076 1086 1085
f 1076 1067 1077 1086
f 1087 1068 1067
f 1088 1077 1078
f 1087 1069 1068
f 1088 1078 1079
f 1087 1070 1069
f 1088 1079 1080
f 1087 1071 1070
f 1088 1080 1081
f 1087 1072 1071
f 1088 1081 1082
f 1087 1073 1072
f 1088 1082 1083
f 1087 1074 1073
f 1088 1083 1084
f 1087 1075 1074
f 1088 1084 1085
f 1087 1076 1075
f 1088 1085 1086
f 1087 1067 1076
f 1088 1086 1077
